<?xml version="1.0" encoding="utf-8"?>
<!-- Generator: Adobe Illustrator 26.4.1, SVG Export Plug-In . SVG Version: 6.00 Build 0)  -->
<svg width="204" height="204" version="1.1" id="Capa_1" xmlns="http://www.w3.org/2000/svg" xmlns:xlink="http://www.w3.org/1999/xlink" x="0px" y="0px"
	 viewBox="0 0 204 204" style="enable-background:new 0 0 204 204;" xml:space="preserve">
<style type="text/css">
	.st0{fill:url(#SVGID_1_);}
	.st1{fill:#FFFFFF;}
</style>
<linearGradient id="SVGID_1_" gradientUnits="userSpaceOnUse" x1="-12.4729" y1="104.4204" x2="228.0859" y2="103.5369" gradientTransform="matrix(1 0 0 -1 0 206)">
	<stop  offset="0" style="stop-color:#AA367C"/>
	<stop  offset="1" style="stop-color:#4A2FBD"/>
</linearGradient>
<path class="st0" d="M187.6,69.9c5.5-2,11.6,0.7,13.1,6.3c5.5,21.2,4.1,43.8-4.3,64.3c-9.7,23.8-28,43-51.3,53.9
	c-23.3,10.9-49.7,12.6-74.2,4.8c-24.5-7.8-45.1-24.5-57.7-46.9C0.6,130-3.2,103.7,2.7,78.7c5.9-25,20.9-46.8,42.2-61.2
	S92.1-2.7,117.4,1.2c21.9,3.3,42,13.7,57.4,29.4c4.1,4.2,3.3,10.8-1.3,14.5c-4.6,3.6-11.1,2.8-15.3-1.2c-12-11.6-27.3-19.2-44-21.8
	C94.1,18.9,73.6,23.6,56.7,35C39.8,46.4,27.9,63.7,23.2,83.5c-4.7,19.8-1.7,40.7,8.4,58.4c10,17.7,26.4,31,45.8,37.2
	c19.4,6.2,40.4,4.8,58.9-3.8c18.4-8.6,33-23.9,40.7-42.7c6.4-15.6,7.7-32.7,3.9-48.9C179.5,78,182.2,71.9,187.6,69.9z"/>
<g>
	<g>
		<path class="st1" d="M69.5,116.3h-5.8V96.8l-3.8,1.2v-5l4.6-1.7h5V116.3z"/>
		<path class="st1" d="M78,114.7c-1.6-1.3-2.4-3-2.4-5.2V98c0-2.3,0.8-4,2.4-5.2c1.6-1.2,3.9-1.9,6.9-1.9c3,0,5.3,0.6,6.9,1.9
			s2.4,3,2.4,5.3v11.4c0,2.3-0.8,4-2.4,5.2c-1.6,1.2-3.9,1.9-6.9,1.9C81.9,116.5,79.6,115.9,78,114.7z M87.5,111
			c0.6-0.6,0.8-1.6,0.8-2.8v-9c0-1.2-0.3-2.2-0.8-2.8s-1.4-1-2.6-1s-2,0.3-2.6,1c-0.6,0.6-0.8,1.6-0.8,2.8v9c0,1.2,0.3,2.2,0.8,2.8
			c0.6,0.6,1.4,1,2.6,1S87,111.7,87.5,111z"/>
		<path class="st1" d="M102.1,114.7c-1.6-1.3-2.4-3-2.4-5.2V98c0-2.3,0.8-4,2.4-5.2c1.6-1.2,3.9-1.9,6.9-1.9c3,0,5.3,0.6,6.9,1.9
			s2.4,3,2.4,5.3v11.4c0,2.3-0.8,4-2.4,5.2c-1.6,1.2-3.9,1.9-6.9,1.9C106,116.5,103.7,115.9,102.1,114.7z M111.6,111
			c0.6-0.6,0.8-1.6,0.8-2.8v-9c0-1.2-0.3-2.2-0.8-2.8s-1.4-1-2.6-1s-2,0.3-2.6,1s-0.8,1.6-0.8,2.8v9c0,1.2,0.3,2.2,0.8,2.8
			s1.4,1,2.6,1S111,111.7,111.6,111z"/>
		<path class="st1" d="M124.2,100.8c-1-0.8-1.5-1.9-1.5-3.2v-2.2c0-1.4,0.5-2.5,1.5-3.2s2.3-1.2,4.1-1.2c1.8,0,3.2,0.4,4.1,1.2
			c1,0.8,1.4,1.9,1.4,3.3v2.1c0,1.4-0.5,2.5-1.5,3.3c-1,0.8-2.3,1.2-4.1,1.2S125.1,101.6,124.2,100.8z M141.7,91.2h5.3l-16.2,25.1
			h-5.3L141.7,91.2z M129,98.1c0.2-0.2,0.2-0.4,0.2-0.7v-1.9c0-0.3-0.1-0.5-0.2-0.7s-0.4-0.2-0.7-0.2c-0.3,0-0.5,0.1-0.7,0.2
			s-0.2,0.4-0.2,0.7v1.9c0,0.3,0.1,0.6,0.2,0.8c0.2,0.2,0.4,0.2,0.7,0.2C128.6,98.4,128.8,98.3,129,98.1z M139.6,115.4
			c-1-0.8-1.5-1.9-1.5-3.2V110c0-1.4,0.5-2.5,1.5-3.2c1-0.8,2.3-1.2,4.1-1.2c1.8,0,3.2,0.4,4.1,1.2c1,0.8,1.4,1.9,1.4,3.3v2.1
			c0,1.4-0.5,2.5-1.5,3.3c-1,0.8-2.3,1.2-4.1,1.2C141.9,116.5,140.5,116.2,139.6,115.4z M144.4,112.7c0.2-0.2,0.2-0.4,0.2-0.7v-1.9
			c0-0.3-0.1-0.5-0.2-0.7c-0.2-0.2-0.4-0.2-0.7-0.2c-0.3,0-0.6,0.1-0.7,0.2c-0.2,0.2-0.2,0.4-0.2,0.7v1.9c0,0.3,0.1,0.6,0.2,0.8
			c0.2,0.2,0.4,0.2,0.7,0.2C144,113,144.2,112.9,144.4,112.7z"/>
	</g>
</g>
</svg>
