<?xml version="1.0" encoding="utf-8"?>
<!-- Generator: Adobe Illustrator 26.4.1, SVG Export Plug-In . SVG Version: 6.00 Build 0)  -->
<svg width="204" height="204" version="1.1" id="Capa_1" xmlns="http://www.w3.org/2000/svg" xmlns:xlink="http://www.w3.org/1999/xlink" x="0px" y="0px"
	 viewBox="0 0 204 204" style="enable-background:new 0 0 204 204;" xml:space="preserve">
<style type="text/css">
	.st0{fill:url(#SVGID_1_);}
	.st1{fill:#FFFFFF;}
</style>
<linearGradient id="SVGID_1_" gradientUnits="userSpaceOnUse" x1="-12.4729" y1="104.4204" x2="228.0859" y2="103.5369" gradientTransform="matrix(1 0 0 -1 0 206)">
	<stop  offset="0" style="stop-color:#AA367C"/>
	<stop  offset="1" style="stop-color:#4A2FBD"/>
</linearGradient>
<path class="st0" d="M187.6,69.9c5.5-2,11.6,0.7,13.1,6.3c5.5,21.2,4.1,43.8-4.3,64.3c-9.7,23.8-28,43-51.3,53.9
	c-23.3,10.9-49.7,12.6-74.2,4.8c-24.5-7.8-45.1-24.5-57.7-46.9C0.6,130-3.2,103.7,2.7,78.7c5.9-25,20.9-46.8,42.2-61.2
	S92.1-2.7,117.4,1.2c21.9,3.3,42,13.7,57.4,29.4c4.1,4.2,3.3,10.8-1.3,14.5c-4.6,3.6-11.1,2.8-15.3-1.2c-12-11.6-27.3-19.2-44-21.8
	C94.1,18.9,73.6,23.6,56.7,35C39.8,46.4,27.9,63.7,23.2,83.5c-4.7,19.8-1.7,40.7,8.4,58.4c10,17.7,26.4,31,45.8,37.2
	c19.4,6.2,40.4,4.8,58.9-3.8c18.4-8.6,33-23.9,40.7-42.7c6.4-15.6,7.7-32.7,3.9-48.9C179.5,78,182.2,71.9,187.6,69.9z"/>
<g>
	<g>
		<path class="st1" d="M83.4,94.4l-6.9,21.9h-6.3l6.7-20.5h-5.3v3.8h-5.8v-8.3h17.7V94.4z"/>
		<path class="st1" d="M93.1,115.7c-1.3-0.6-2.4-1.5-3.2-2.6c-0.8-1.1-1.3-2.5-1.4-4v0h5.8v0c0.1,0.9,0.5,1.6,1,2.1
			c0.6,0.5,1.3,0.8,2.3,0.8c1,0,1.8-0.3,2.4-0.8c0.6-0.5,0.8-1.3,0.8-2.3v-2.1c0-1-0.3-1.8-0.8-2.3s-1.2-0.8-2.1-0.8
			c-0.8,0-1.6,0.2-2.1,0.5c-0.6,0.3-1,0.8-1.2,1.4h-5.5V91.2h16.6v4.6H95v4.4c0.4-0.3,1-0.6,1.8-0.8c0.8-0.2,1.5-0.3,2.3-0.3
			c1.6,0,3,0.3,4.1,0.9s2,1.5,2.6,2.6c0.6,1.1,0.9,2.5,0.9,4.2v2.1c0,1.6-0.4,3-1.1,4.2s-1.8,2-3.1,2.6s-3,0.9-4.9,0.9
			C95.9,116.5,94.4,116.2,93.1,115.7z"/>
		<path class="st1" d="M112.6,100.8c-1-0.8-1.5-1.9-1.5-3.2v-2.2c0-1.4,0.5-2.5,1.5-3.2s2.3-1.2,4.1-1.2c1.8,0,3.2,0.4,4.1,1.2
			c1,0.8,1.4,1.9,1.4,3.3v2.1c0,1.4-0.5,2.5-1.5,3.3c-1,0.8-2.3,1.2-4.1,1.2S113.6,101.6,112.6,100.8z M130.1,91.2h5.3l-16.2,25.1
			h-5.3L130.1,91.2z M117.4,98.1c0.2-0.2,0.2-0.4,0.2-0.7v-1.9c0-0.3-0.1-0.5-0.2-0.7s-0.4-0.2-0.7-0.2c-0.3,0-0.5,0.1-0.7,0.2
			s-0.2,0.4-0.2,0.7v1.9c0,0.3,0.1,0.6,0.2,0.8c0.2,0.2,0.4,0.2,0.7,0.2C117,98.4,117.3,98.3,117.4,98.1z M128,115.4
			c-1-0.8-1.5-1.9-1.5-3.2V110c0-1.4,0.5-2.5,1.5-3.2c1-0.8,2.3-1.2,4.1-1.2c1.8,0,3.2,0.4,4.1,1.2c1,0.8,1.4,1.9,1.4,3.3v2.1
			c0,1.4-0.5,2.5-1.5,3.3c-1,0.8-2.3,1.2-4.1,1.2C130.3,116.5,129,116.2,128,115.4z M132.8,112.7c0.2-0.2,0.2-0.4,0.2-0.7v-1.9
			c0-0.3-0.1-0.5-0.2-0.7c-0.2-0.2-0.4-0.2-0.7-0.2c-0.3,0-0.6,0.1-0.7,0.2c-0.2,0.2-0.2,0.4-0.2,0.7v1.9c0,0.3,0.1,0.6,0.2,0.8
			c0.2,0.2,0.4,0.2,0.7,0.2C132.4,113,132.7,112.9,132.8,112.7z"/>
	</g>
</g>
</svg>
